<?xml version="1.0" encoding="UTF-8"?>
<svg viewBox="0 0 520 240" width="520" height="240" style="display: block; background: rgb(255, 255, 255);" xmlns="http://www.w3.org/2000/svg"><defs><linearGradient id="sp-area" x1="0" y1="0" x2="0" y2="1"><stop offset="0%" stop-color="#10B981" stop-opacity="0.22"/><stop offset="100%" stop-color="#10B981" stop-opacity="0"/></linearGradient></defs><text x="28" y="24" font-size="11" font-weight="500" fill="#64748B" font-family="'DM Sans', system-ui" letter-spacing="1">USDT / KES — LAST 7 DAYS</text><g transform="translate(492, 24)"><circle cx="-84" cy="-4" r="3" fill="#10B981"/><circle cx="-84" cy="-4" r="3" fill="#10B981" opacity="0.35"><animate attributeName="r" values="3;8;3" dur="1.8s" repeatCount="indefinite"/><animate attributeName="opacity" values="0.5;0;0.5" dur="1.8s" repeatCount="indefinite"/></circle><text x="-76" y="0" font-size="10" font-weight="500" fill="#10B981" font-family="'DM Sans', system-ui">LIVE</text></g><text x="28" y="52" font-size="28" font-weight="700" fill="#0B1220" font-family="'DM Sans', system-ui" letter-spacing="-0.8">155.27<tspan font-size="12" font-weight="500" fill="#64748B" dx="6">KES</tspan></text><line x1="28" x2="492" y1="90" y2="90" stroke="#E5E7EB" stroke-width="1" stroke-dasharray="2 4"/><line x1="28" x2="492" y1="130" y2="130" stroke="#E5E7EB" stroke-width="1" stroke-dasharray="2 4"/><line x1="28" x2="492" y1="170" y2="170" stroke="#E5E7EB" stroke-width="1" stroke-dasharray="2 4"/><path d="M 28 208.6623583763892 L 35.86440677966102 206.15656391036435 L 43.728813559322035 203.42815927961996 L 51.59322033898305 201.13216014767576 L 59.45762711864407 199.8227625981462 L 67.32203389830508 199.73081255916077 L 75.1864406779661 200.67594361080174 L 83.05084745762713 202.15273196047542 L 90.91525423728814 203.5502221599446 L 98.77966101694916 204.4033106255719 L 106.64406779661016 204.5611853788217 L 114.50847457627118 204.19839795542208 L 122.37288135593221 203.66906656090595 L 130.23728813559322 203.27885395098494 L 138.10169491525426 203.0878229705342 L 145.96610169491527 202.84197935854502 L 153.83050847457628 202.06953151798265 L 161.6949152542373 200.2988062797646 L 169.55932203389833 197.2957104388411 L 177.4237288135593 193.20756649407224 L 185.28813559322032 188.54245805135272 L 193.15254237288136 183.98916270123198 L 201.01694915254237 180.15674635835984 L 208.8813559322034 177.3502347306014 L 216.74576271186442 175.48194460714754 L 224.61016949152543 174.15495399277256 L 232.47457627118644 172.87542774444023 L 240.33898305084745 171.29149364189573 L 248.20338983050848 169.34569086072395 L 256.06779661016947 167.27053533064014 L 263.93220338983053 165.43228677157484 L 271.79661016949154 164.10086513866278 L 279.66101694915255 163.25964107429965 L 287.52542372881356 162.55058983482922 L 295.3898305084746 161.3865778929308 L 303.2542372881356 159.18332005761863 L 311.11864406779665 155.60612595042184 L 318.9830508474576 150.71806138985576 L 326.8474576271186 144.96072377788522 L 334.7118644067797 138.97567820921296 L 342.57627118644064 133.34775900093587 L 350.4406779661017 128.38667218854778 L 358.3050847457627 124.04421326208075 L 366.1694915254237 120.00003965945302 L 374.03389830508473 115.86964225919034 L 381.89830508474574 111.43124016270818 L 389.7627118644068 106.76049613236849 L 397.62711864406776 102.20679498853039 L 405.49152542372883 98.22111059837981 L 413.35593220338984 95.11716302933769 L 421.22033898305085 92.88074685650103 L 421.22033898305085 220 L 28 220 Z" fill="url(#sp-area)"/><path d="M 28 208.6623583763892 L 35.86440677966102 206.15656391036435 L 43.728813559322035 203.42815927961996 L 51.59322033898305 201.13216014767576 L 59.45762711864407 199.8227625981462 L 67.32203389830508 199.73081255916077 L 75.1864406779661 200.67594361080174 L 83.05084745762713 202.15273196047542 L 90.91525423728814 203.5502221599446 L 98.77966101694916 204.4033106255719 L 106.64406779661016 204.5611853788217 L 114.50847457627118 204.19839795542208 L 122.37288135593221 203.66906656090595 L 130.23728813559322 203.27885395098494 L 138.10169491525426 203.0878229705342 L 145.96610169491527 202.84197935854502 L 153.83050847457628 202.06953151798265 L 161.6949152542373 200.2988062797646 L 169.55932203389833 197.2957104388411 L 177.4237288135593 193.20756649407224 L 185.28813559322032 188.54245805135272 L 193.15254237288136 183.98916270123198 L 201.01694915254237 180.15674635835984 L 208.8813559322034 177.3502347306014 L 216.74576271186442 175.48194460714754 L 224.61016949152543 174.15495399277256 L 232.47457627118644 172.87542774444023 L 240.33898305084745 171.29149364189573 L 248.20338983050848 169.34569086072395 L 256.06779661016947 167.27053533064014 L 263.93220338983053 165.43228677157484 L 271.79661016949154 164.10086513866278 L 279.66101694915255 163.25964107429965 L 287.52542372881356 162.55058983482922 L 295.3898305084746 161.3865778929308 L 303.2542372881356 159.18332005761863 L 311.11864406779665 155.60612595042184 L 318.9830508474576 150.71806138985576 L 326.8474576271186 144.96072377788522 L 334.7118644067797 138.97567820921296 L 342.57627118644064 133.34775900093587 L 350.4406779661017 128.38667218854778 L 358.3050847457627 124.04421326208075 L 366.1694915254237 120.00003965945302 L 374.03389830508473 115.86964225919034 L 381.89830508474574 111.43124016270818 L 389.7627118644068 106.76049613236849 L 397.62711864406776 102.20679498853039 L 405.49152542372883 98.22111059837981 L 413.35593220338984 95.11716302933769 L 421.22033898305085 92.88074685650103" fill="none" stroke="#10B981" stroke-width="2" stroke-linecap="round" stroke-linejoin="round"/><line x1="421.22033898305085" x2="421.22033898305085" y1="50" y2="220" stroke="#10B981" stroke-width="1" stroke-dasharray="3 3" opacity="0.4"/><circle cx="421.22033898305085" cy="92.88074685650103" r="5" fill="#fff" stroke="#10B981" stroke-width="2"/><text x="28" y="234" text-anchor="middle" font-size="10" fill="#64748B" font-family="'DM Sans', system-ui">Mon</text><text x="105.33333333333333" y="234" text-anchor="middle" font-size="10" fill="#64748B" font-family="'DM Sans', system-ui">Tue</text><text x="182.66666666666666" y="234" text-anchor="middle" font-size="10" fill="#64748B" font-family="'DM Sans', system-ui">Wed</text><text x="260" y="234" text-anchor="middle" font-size="10" fill="#64748B" font-family="'DM Sans', system-ui">Thu</text><text x="337.3333333333333" y="234" text-anchor="middle" font-size="10" fill="#64748B" font-family="'DM Sans', system-ui">Fri</text><text x="414.6666666666667" y="234" text-anchor="middle" font-size="10" fill="#64748B" font-family="'DM Sans', system-ui">Sat</text><text x="492" y="234" text-anchor="middle" font-size="10" fill="#64748B" font-family="'DM Sans', system-ui">Sun</text></svg>