<?xml version="1.0" encoding="UTF-8"?>
<svg viewBox="0 0 360 360" width="360" height="360" style="display: block; background: rgb(255, 255, 255);" xmlns="http://www.w3.org/2000/svg"><defs><linearGradient id="lock-ring" x1="0" y1="0" x2="1" y2="1"><stop offset="0%" stop-color="#10B981"/><stop offset="100%" stop-color="#34D399"/></linearGradient><radialGradient id="lock-glow" cx="0.5" cy="0.5" r="0.5"><stop offset="0%" stop-color="#10B981" stop-opacity="0.18"/><stop offset="100%" stop-color="#10B981" stop-opacity="0"/></radialGradient></defs><circle cx="180" cy="180" r="150" fill="url(#lock-glow)"/><circle cx="180" cy="180" r="110" fill="none" stroke="#F1F5F9" stroke-width="10"/><circle cx="180" cy="180" r="110" fill="none" stroke="url(#lock-ring)" stroke-width="10" stroke-linecap="round" stroke-dasharray="47.38219853314209 691.1503837897545" transform="rotate(-90 180 180)"/><line x1="180" y1="54" x2="180" y2="48" stroke="#E5E7EB" stroke-width="1.5"/><line x1="243" y1="70.88079912316073" x2="246" y2="65.6846467004541" stroke="#E5E7EB" stroke-width="1.5"/><line x1="289.1192008768393" y1="117" x2="294.3153532995459" y2="114" stroke="#E5E7EB" stroke-width="1.5"/><line x1="306" y1="180" x2="312" y2="180" stroke="#E5E7EB" stroke-width="1.5"/><line x1="289.1192008768393" y1="242.99999999999997" x2="294.3153532995459" y2="245.99999999999997" stroke="#E5E7EB" stroke-width="1.5"/><line x1="243" y1="289.1192008768393" x2="246" y2="294.3153532995459" stroke="#E5E7EB" stroke-width="1.5"/><line x1="180" y1="306" x2="180" y2="312" stroke="#E5E7EB" stroke-width="1.5"/><line x1="116.99999999999997" y1="289.1192008768393" x2="113.99999999999997" y2="294.3153532995459" stroke="#E5E7EB" stroke-width="1.5"/><line x1="70.88079912316076" y1="243.00000000000006" x2="65.68464670045412" y2="246.00000000000006" stroke="#E5E7EB" stroke-width="1.5"/><line x1="54" y1="180.00000000000003" x2="48" y2="180.00000000000003" stroke="#E5E7EB" stroke-width="1.5"/><line x1="70.88079912316074" y1="116.99999999999999" x2="65.68464670045411" y2="113.99999999999999" stroke="#E5E7EB" stroke-width="1.5"/><line x1="116.99999999999994" y1="70.88079912316077" x2="113.99999999999994" y2="65.68464670045414" stroke="#E5E7EB" stroke-width="1.5"/><g transform="translate(180, 128)"><rect x="-11" y="-4" width="22" height="16" rx="3" fill="#10B981"/><path d="M -7 -4 L -7 -10 a 7 7 0 0 1 14 0 L 7 -4" fill="none" stroke="#10B981" stroke-width="2.5"/><circle cx="0" cy="4" r="2" fill="#fff"/></g><text x="180" y="184" text-anchor="middle" font-size="54" font-weight="700" fill="#0B1220" font-family="'DM Sans', system-ui" letter-spacing="-2">7<tspan font-size="16" font-weight="500" fill="#64748B" dx="4">s</tspan></text><text x="180" y="208" text-anchor="middle" font-size="11" font-weight="500" fill="#64748B" font-family="'DM Sans', system-ui" letter-spacing="1.5">RATE LOCKED</text><g transform="translate(180, 250)"><rect x="-70" y="-16" width="140" height="32" rx="16" fill="#D1FAE5" stroke="#10B981" stroke-opacity="0.3"/><text x="0" y="5" text-anchor="middle" font-size="14" font-weight="600" fill="#059669" font-family="'DM Sans', system-ui">1 USDT = 131.47</text></g></svg>