<?xml version="1.0" encoding="UTF-8"?>
<svg viewBox="0 0 560 240" width="560" height="240" style="display: block; background: rgb(255, 255, 255);" xmlns="http://www.w3.org/2000/svg"><defs><linearGradient id="sp-area" x1="0" y1="0" x2="0" y2="1"><stop offset="0%" stop-color="#10B981" stop-opacity="0.22"/><stop offset="100%" stop-color="#10B981" stop-opacity="0"/></linearGradient></defs><text x="28" y="24" font-size="11" font-weight="500" fill="#64748B" font-family="'DM Sans', system-ui" letter-spacing="1">USDT / KES — LAST 7 DAYS</text><g transform="translate(532, 24)"><circle cx="-84" cy="-4" r="3" fill="#10B981"/><circle cx="-84" cy="-4" r="3" fill="#10B981" opacity="0.35"><animate attributeName="r" values="3;8;3" dur="1.8s" repeatCount="indefinite"/><animate attributeName="opacity" values="0.5;0;0.5" dur="1.8s" repeatCount="indefinite"/></circle><text x="-76" y="0" font-size="10" font-weight="500" fill="#10B981" font-family="'DM Sans', system-ui">LIVE</text></g><text x="28" y="52" font-size="28" font-weight="700" fill="#0B1220" font-family="'DM Sans', system-ui" letter-spacing="-0.8">161.70<tspan font-size="12" font-weight="500" fill="#64748B" dx="6">KES</tspan></text><line x1="28" x2="532" y1="90" y2="90" stroke="#E5E7EB" stroke-width="1" stroke-dasharray="2 4"/><line x1="28" x2="532" y1="130" y2="130" stroke="#E5E7EB" stroke-width="1" stroke-dasharray="2 4"/><line x1="28" x2="532" y1="170" y2="170" stroke="#E5E7EB" stroke-width="1" stroke-dasharray="2 4"/><path d="M 28 208.6623583763892 L 36.54237288135593 206.15656391036435 L 45.08474576271186 203.42815927961996 L 53.6271186440678 201.13216014767576 L 62.16949152542373 199.8227625981462 L 70.71186440677965 199.73081255916077 L 79.2542372881356 200.67594361080174 L 87.79661016949153 202.15273196047542 L 96.33898305084746 203.5502221599446 L 104.88135593220339 204.4033106255719 L 113.42372881355932 204.5611853788217 L 121.96610169491525 204.19839795542208 L 130.5084745762712 203.66906656090595 L 139.05084745762713 203.27885395098494 L 147.59322033898306 203.0878229705342 L 156.135593220339 202.84197935854502 L 164.67796610169492 202.06953151798265 L 173.22033898305085 200.2988062797646 L 181.76271186440678 197.2957104388411 L 190.3050847457627 193.20756649407224 L 198.84745762711864 188.54245805135272 L 207.38983050847457 183.98916270123198 L 215.9322033898305 180.15674635835984 L 224.47457627118644 177.3502347306014 L 233.0169491525424 175.48194460714754 L 241.5593220338983 174.15495399277256 L 250.10169491525423 172.87542774444023 L 258.64406779661016 171.29149364189573 L 267.1864406779661 169.34569086072395 L 275.728813559322 167.27053533064014 L 284.271186440678 165.43228677157484 L 292.81355932203394 164.10086513866278 L 301.35593220338984 163.25964107429965 L 309.89830508474574 162.55058983482922 L 318.4406779661017 161.3865778929308 L 326.9830508474576 159.18332005761863 L 335.52542372881356 155.60612595042184 L 344.06779661016947 150.71806138985576 L 352.6101694915254 144.96072377788522 L 361.1525423728814 138.97567820921296 L 369.6949152542373 133.34775900093587 L 378.23728813559325 128.38667218854778 L 386.77966101694915 124.04421326208075 L 395.32203389830505 120.00003965945302 L 403.864406779661 115.86964225919034 L 412.4067796610169 111.43124016270818 L 420.9491525423729 106.76049613236849 L 429.49152542372883 102.20679498853039 L 438.0338983050848 98.22111059837981 L 446.5762711864407 95.11716302933769 L 455.1186440677966 92.88074685650103 L 463.66101694915255 91.12101765786875 L 472.20338983050846 89.19192833957423 L 480.7457627118644 86.43264912678205 L 489.2881355932203 82.41994452882545 L 497.8305084745763 77.11937994696393 L 506.37288135593224 70.86880454843495 L 514.9152542372881 64.20499722213091 L 514.9152542372881 220 L 28 220 Z" fill="url(#sp-area)"/><path d="M 28 208.6623583763892 L 36.54237288135593 206.15656391036435 L 45.08474576271186 203.42815927961996 L 53.6271186440678 201.13216014767576 L 62.16949152542373 199.8227625981462 L 70.71186440677965 199.73081255916077 L 79.2542372881356 200.67594361080174 L 87.79661016949153 202.15273196047542 L 96.33898305084746 203.5502221599446 L 104.88135593220339 204.4033106255719 L 113.42372881355932 204.5611853788217 L 121.96610169491525 204.19839795542208 L 130.5084745762712 203.66906656090595 L 139.05084745762713 203.27885395098494 L 147.59322033898306 203.0878229705342 L 156.135593220339 202.84197935854502 L 164.67796610169492 202.06953151798265 L 173.22033898305085 200.2988062797646 L 181.76271186440678 197.2957104388411 L 190.3050847457627 193.20756649407224 L 198.84745762711864 188.54245805135272 L 207.38983050847457 183.98916270123198 L 215.9322033898305 180.15674635835984 L 224.47457627118644 177.3502347306014 L 233.0169491525424 175.48194460714754 L 241.5593220338983 174.15495399277256 L 250.10169491525423 172.87542774444023 L 258.64406779661016 171.29149364189573 L 267.1864406779661 169.34569086072395 L 275.728813559322 167.27053533064014 L 284.271186440678 165.43228677157484 L 292.81355932203394 164.10086513866278 L 301.35593220338984 163.25964107429965 L 309.89830508474574 162.55058983482922 L 318.4406779661017 161.3865778929308 L 326.9830508474576 159.18332005761863 L 335.52542372881356 155.60612595042184 L 344.06779661016947 150.71806138985576 L 352.6101694915254 144.96072377788522 L 361.1525423728814 138.97567820921296 L 369.6949152542373 133.34775900093587 L 378.23728813559325 128.38667218854778 L 386.77966101694915 124.04421326208075 L 395.32203389830505 120.00003965945302 L 403.864406779661 115.86964225919034 L 412.4067796610169 111.43124016270818 L 420.9491525423729 106.76049613236849 L 429.49152542372883 102.20679498853039 L 438.0338983050848 98.22111059837981 L 446.5762711864407 95.11716302933769 L 455.1186440677966 92.88074685650103 L 463.66101694915255 91.12101765786875 L 472.20338983050846 89.19192833957423 L 480.7457627118644 86.43264912678205 L 489.2881355932203 82.41994452882545 L 497.8305084745763 77.11937994696393 L 506.37288135593224 70.86880454843495 L 514.9152542372881 64.20499722213091" fill="none" stroke="#10B981" stroke-width="2" stroke-linecap="round" stroke-linejoin="round"/><line x1="514.9152542372881" x2="514.9152542372881" y1="50" y2="220" stroke="#10B981" stroke-width="1" stroke-dasharray="3 3" opacity="0.4"/><circle cx="514.9152542372881" cy="64.20499722213091" r="5" fill="#fff" stroke="#10B981" stroke-width="2"/><text x="28" y="234" text-anchor="middle" font-size="10" fill="#64748B" font-family="'DM Sans', system-ui">Mon</text><text x="112" y="234" text-anchor="middle" font-size="10" fill="#64748B" font-family="'DM Sans', system-ui">Tue</text><text x="196" y="234" text-anchor="middle" font-size="10" fill="#64748B" font-family="'DM Sans', system-ui">Wed</text><text x="280" y="234" text-anchor="middle" font-size="10" fill="#64748B" font-family="'DM Sans', system-ui">Thu</text><text x="364" y="234" text-anchor="middle" font-size="10" fill="#64748B" font-family="'DM Sans', system-ui">Fri</text><text x="448" y="234" text-anchor="middle" font-size="10" fill="#64748B" font-family="'DM Sans', system-ui">Sat</text><text x="532" y="234" text-anchor="middle" font-size="10" fill="#64748B" font-family="'DM Sans', system-ui">Sun</text></svg>