<?xml version="1.0" encoding="UTF-8"?>
<svg viewBox="0 0 200 200" width="180" height="180" style="display: block;" xmlns="http://www.w3.org/2000/svg"><circle cx="72" cy="45" r="1.5" fill="#E5E7EB"/><circle cx="86" cy="45" r="1.5" fill="#E5E7EB"/><circle cx="100" cy="45" r="1.5" fill="#E5E7EB"/><circle cx="114" cy="45" r="1.5" fill="#E5E7EB"/><circle cx="128" cy="45" r="1.5" fill="#E5E7EB"/><circle cx="44" cy="57" r="1.5" fill="#E5E7EB"/><circle cx="58" cy="57" r="1.5" fill="#E5E7EB"/><circle cx="72" cy="57" r="1.5" fill="#E5E7EB"/><circle cx="86" cy="57" r="1.5" fill="#E5E7EB"/><circle cx="100" cy="57" r="1.5" fill="#E5E7EB"/><circle cx="114" cy="57" r="1.5" fill="#E5E7EB"/><circle cx="128" cy="57" r="1.5" fill="#E5E7EB"/><circle cx="142" cy="57" r="1.5" fill="#E5E7EB"/><circle cx="156" cy="57" r="1.5" fill="#E5E7EB"/><circle cx="44" cy="69" r="1.5" fill="#E5E7EB"/><circle cx="58" cy="69" r="1.5" fill="#E5E7EB"/><circle cx="72" cy="69" r="1.5" fill="#E5E7EB"/><circle cx="86" cy="69" r="1.5" fill="#E5E7EB"/><circle cx="100" cy="69" r="1.5" fill="#E5E7EB"/><circle cx="114" cy="69" r="1.5" fill="#E5E7EB"/><circle cx="128" cy="69" r="1.5" fill="#E5E7EB"/><circle cx="142" cy="69" r="1.5" fill="#E5E7EB"/><circle cx="156" cy="69" r="1.5" fill="#E5E7EB"/><circle cx="30" cy="81" r="1.5" fill="#E5E7EB"/><circle cx="44" cy="81" r="1.5" fill="#E5E7EB"/><circle cx="58" cy="81" r="1.5" fill="#E5E7EB"/><circle cx="72" cy="81" r="1.5" fill="#E5E7EB"/><circle cx="86" cy="81" r="2.5" fill="#10B981"/><circle cx="100" cy="81" r="2.5" fill="#10B981"/><circle cx="114" cy="81" r="2.5" fill="#10B981"/><circle cx="128" cy="81" r="1.5" fill="#E5E7EB"/><circle cx="142" cy="81" r="1.5" fill="#E5E7EB"/><circle cx="156" cy="81" r="1.5" fill="#E5E7EB"/><circle cx="170" cy="81" r="1.5" fill="#E5E7EB"/><circle cx="30" cy="93" r="1.5" fill="#E5E7EB"/><circle cx="44" cy="93" r="1.5" fill="#E5E7EB"/><circle cx="58" cy="93" r="1.5" fill="#E5E7EB"/><circle cx="72" cy="93" r="1.5" fill="#E5E7EB"/><circle cx="86" cy="93" r="2.5" fill="#10B981"/><circle cx="100" cy="93" r="2.5" fill="#10B981"/><circle cx="114" cy="93" r="2.5" fill="#10B981"/><circle cx="128" cy="93" r="1.5" fill="#E5E7EB"/><circle cx="142" cy="93" r="1.5" fill="#E5E7EB"/><circle cx="156" cy="93" r="1.5" fill="#E5E7EB"/><circle cx="170" cy="93" r="1.5" fill="#E5E7EB"/><circle cx="30" cy="105" r="1.5" fill="#E5E7EB"/><circle cx="44" cy="105" r="1.5" fill="#E5E7EB"/><circle cx="58" cy="105" r="1.5" fill="#E5E7EB"/><circle cx="72" cy="105" r="1.5" fill="#E5E7EB"/><circle cx="86" cy="105" r="2.5" fill="#10B981"/><circle cx="100" cy="105" r="2.5" fill="#10B981"/><circle cx="114" cy="105" r="2.5" fill="#10B981"/><circle cx="128" cy="105" r="1.5" fill="#E5E7EB"/><circle cx="142" cy="105" r="1.5" fill="#E5E7EB"/><circle cx="156" cy="105" r="1.5" fill="#E5E7EB"/><circle cx="170" cy="105" r="1.5" fill="#E5E7EB"/><circle cx="44" cy="117" r="1.5" fill="#E5E7EB"/><circle cx="58" cy="117" r="1.5" fill="#E5E7EB"/><circle cx="72" cy="117" r="1.5" fill="#E5E7EB"/><circle cx="86" cy="117" r="1.5" fill="#E5E7EB"/><circle cx="100" cy="117" r="1.5" fill="#E5E7EB"/><circle cx="114" cy="117" r="1.5" fill="#E5E7EB"/><circle cx="128" cy="117" r="1.5" fill="#E5E7EB"/><circle cx="142" cy="117" r="1.5" fill="#E5E7EB"/><circle cx="156" cy="117" r="1.5" fill="#E5E7EB"/><circle cx="44" cy="129" r="1.5" fill="#E5E7EB"/><circle cx="58" cy="129" r="1.5" fill="#E5E7EB"/><circle cx="72" cy="129" r="1.5" fill="#E5E7EB"/><circle cx="86" cy="129" r="1.5" fill="#E5E7EB"/><circle cx="100" cy="129" r="1.5" fill="#E5E7EB"/><circle cx="114" cy="129" r="1.5" fill="#E5E7EB"/><circle cx="128" cy="129" r="1.5" fill="#E5E7EB"/><circle cx="142" cy="129" r="1.5" fill="#E5E7EB"/><circle cx="156" cy="129" r="1.5" fill="#E5E7EB"/><circle cx="72" cy="141" r="1.5" fill="#E5E7EB"/><circle cx="86" cy="141" r="1.5" fill="#E5E7EB"/><circle cx="100" cy="141" r="1.5" fill="#E5E7EB"/><circle cx="114" cy="141" r="1.5" fill="#E5E7EB"/><circle cx="128" cy="141" r="1.5" fill="#E5E7EB"/><circle cx="100" cy="93" r="14" fill="none" stroke="#10B981" stroke-width="1"><animate attributeName="r" values="6;20;6" dur="3s" repeatCount="indefinite"/><animate attributeName="opacity" values="0.8;0;0.8" dur="3s" repeatCount="indefinite"/></circle><text x="100" y="170" text-anchor="middle" font-size="10" font-weight="600" fill="#64748B" font-family="'DM Sans', system-ui" letter-spacing="2">NAIROBI · LIVE</text></svg>