<?xml version="1.0" encoding="UTF-8"?>
<svg viewBox="0 0 620 380" width="620" height="380" style="display: block; background: rgb(255, 255, 255);" xmlns="http://www.w3.org/2000/svg"><defs><radialGradient id="cc-hub-glow" cx="0.5" cy="0.5" r="0.5"><stop offset="0%" stop-color="#10B981" stop-opacity="0.22"/><stop offset="100%" stop-color="#10B981" stop-opacity="0"/></radialGradient></defs><circle cx="341" cy="190" r="80" fill="url(#cc-hub-glow)"/><path d="M 102 70 Q 210.5 70 313 190" fill="none" stroke="#E5E7EB" stroke-width="1.5"/><path d="M 102 150 Q 210.5 150 313 190" fill="none" stroke="#E5E7EB" stroke-width="1.5"/><path d="M 102 230 Q 210.5 230 313 190" fill="none" stroke="#E5E7EB" stroke-width="1.5"/><path d="M 102 310 Q 210.5 310 313 190" fill="none" stroke="#E5E7EB" stroke-width="1.5"/><line x1="369" y1="190" x2="508" y2="190" stroke="#10B981" stroke-width="2"/><g><circle cx="218.00778114612245" cy="105.34837707755102" r="6" fill="#10B981" opacity="0.25"/><circle cx="218.00778114612245" cy="105.34837707755102" r="3.5" fill="#10B981"/></g><g><circle cx="270.2545525746939" cy="175.1376495020408" r="6" fill="#F59E0B" opacity="0.25"/><circle cx="270.2545525746939" cy="175.1376495020408" r="3.5" fill="#F59E0B"/></g><g><circle cx="111.2642382889796" cy="229.9269219265306" r="6" fill="#6366F1" opacity="0.25"/><circle cx="111.2642382889796" cy="229.9269219265306" r="3.5" fill="#6366F1"/></g><g><circle cx="165.01100971755102" cy="299.71619435102036" r="6" fill="#A855F7" opacity="0.25"/><circle cx="165.01100971755102" cy="299.71619435102036" r="3.5" fill="#A855F7"/></g><circle cx="380.8825142857143" cy="190" r="4" fill="#10B981"/><g><circle cx="80" cy="70" r="22" fill="#fff" stroke="#10B981" stroke-width="2"/><text x="80" y="74" text-anchor="middle" font-size="11" font-weight="700" fill="#10B981" font-family="'DM Sans', system-ui" letter-spacing="-0.3">USDT</text><text x="80" y="110" text-anchor="middle" font-size="9" font-weight="500" fill="#64748B" font-family="'DM Sans', system-ui" letter-spacing="1">TRON</text></g><g><circle cx="80" cy="150" r="22" fill="#fff" stroke="#F59E0B" stroke-width="2"/><text x="80" y="154" text-anchor="middle" font-size="11" font-weight="700" fill="#F59E0B" font-family="'DM Sans', system-ui" letter-spacing="-0.3">BTC</text><text x="80" y="190" text-anchor="middle" font-size="9" font-weight="500" fill="#64748B" font-family="'DM Sans', system-ui" letter-spacing="1">BITCOIN</text></g><g><circle cx="80" cy="230" r="22" fill="#fff" stroke="#6366F1" stroke-width="2"/><text x="80" y="234" text-anchor="middle" font-size="11" font-weight="700" fill="#6366F1" font-family="'DM Sans', system-ui" letter-spacing="-0.3">ETH</text><text x="80" y="270" text-anchor="middle" font-size="9" font-weight="500" fill="#64748B" font-family="'DM Sans', system-ui" letter-spacing="1">ERC-20</text></g><g><circle cx="80" cy="310" r="22" fill="#fff" stroke="#A855F7" stroke-width="2"/><text x="80" y="314" text-anchor="middle" font-size="11" font-weight="700" fill="#A855F7" font-family="'DM Sans', system-ui" letter-spacing="-0.3">SOL</text><text x="80" y="350" text-anchor="middle" font-size="9" font-weight="500" fill="#64748B" font-family="'DM Sans', system-ui" letter-spacing="1">SOLANA</text></g><circle cx="341" cy="190" r="28" fill="#10B981"/><circle cx="341" cy="190" r="28" fill="none" stroke="#fff" stroke-width="2" stroke-opacity="0.3"/><text x="341" y="195" text-anchor="middle" font-size="14" font-weight="700" fill="#fff" font-family="'DM Sans', system-ui" letter-spacing="-0.5">Cpay</text><g><rect x="508" y="168" width="64" height="44" rx="10" fill="#0B1220"/><text x="540" y="186" text-anchor="middle" font-size="9" font-weight="500" fill="#64748B" font-family="'DM Sans', system-ui" letter-spacing="1">KES</text><text x="540" y="202" text-anchor="middle" font-size="11" font-weight="600" fill="#fff" font-family="'DM Sans', system-ui">Paybill</text></g><text x="310" y="364" text-anchor="middle" font-size="10" font-weight="500" fill="#64748B" font-family="'DM Sans', system-ui" letter-spacing="1.5">FOUR CHAINS · ONE PAYOUT · &lt; 30 SECONDS</text></svg>