<?xml version="1.0" encoding="UTF-8"?>
<svg viewBox="0 0 520 420" width="520" height="420" style="display: block; background: rgb(248, 250, 252);" xmlns="http://www.w3.org/2000/svg"><defs><linearGradient id="hf-glow" x1="0" y1="0" x2="0" y2="1"><stop offset="0%" stop-color="#10B981" stop-opacity="0.25"/><stop offset="100%" stop-color="#10B981" stop-opacity="0"/></linearGradient><clipPath id="hf-phone"><rect x="200" y="90" width="120" height="220" rx="16"/></clipPath></defs><g opacity="0.6"><line x1="0" y1="60" x2="520" y2="60" stroke="#F1F5F9" stroke-width="1"/><line x1="0" y1="100" x2="520" y2="100" stroke="#F1F5F9" stroke-width="1"/><line x1="0" y1="140" x2="520" y2="140" stroke="#F1F5F9" stroke-width="1"/><line x1="0" y1="180" x2="520" y2="180" stroke="#F1F5F9" stroke-width="1"/><line x1="0" y1="220" x2="520" y2="220" stroke="#F1F5F9" stroke-width="1"/><line x1="0" y1="260" x2="520" y2="260" stroke="#F1F5F9" stroke-width="1"/><line x1="0" y1="300" x2="520" y2="300" stroke="#F1F5F9" stroke-width="1"/><line x1="0" y1="340" x2="520" y2="340" stroke="#F1F5F9" stroke-width="1"/></g><ellipse cx="260" cy="328" rx="70" ry="8" fill="rgba(11,18,32,0.08)"/><rect x="196" y="86" width="128" height="228" rx="20" fill="#0B1220"/><rect x="200" y="90" width="120" height="220" rx="16" fill="#FFFFFF" stroke="#E5E7EB"/><g clip-path="url(#hf-phone)"><rect x="200" y="90" width="120" height="24" fill="#0B1220" opacity="0.04"/><circle cx="260" cy="102" r="3" fill="#0B1220" opacity="0.3"/><rect x="216" y="130" width="88" height="50" rx="10" fill="#D1FAE5" opacity="0.6"/><rect x="216" y="130" width="88" height="50" rx="10" fill="none" stroke="#10B981" stroke-width="1.5" stroke-dasharray="4 4" opacity="0.7"/><g opacity="0" transform="translate(0, 8)"><text x="260" y="240" text-anchor="middle" font-size="11" font-weight="500" fill="#64748B" font-family="'DM Sans', system-ui">PAID</text><text x="260" y="262" text-anchor="middle" font-size="20" font-weight="700" fill="#0B1220" font-family="'DM Sans', system-ui" letter-spacing="-0.5">KES 1,450</text></g></g><rect x="240" y="96" width="40" height="6" rx="3" fill="#0B1220"/><g opacity="1"><ellipse cx="260" cy="116.09783004444438" rx="12" ry="2" fill="#10B981" opacity="0.15"/><g opacity="1"><circle cx="260" cy="108.09783004444438" r="18" fill="#10B981"/><circle cx="260" cy="108.09783004444438" r="18" fill="none" stroke="rgba(255,255,255,0.25)" stroke-width="1"/><text x="260" y="111.09783004444438" text-anchor="middle" font-size="9.36" font-weight="700" font-family="'DM Sans', system-ui" fill="#fff" letter-spacing="-0.3">USDT</text></g></g><g opacity="0" transform="translate(360, 120)"><rect x="0" y="80" width="140" height="160" rx="8" fill="#FFFFFF" stroke="#E5E7EB"/><rect x="0" y="80" width="140" height="28" rx="8" fill="#10B981"/><rect x="0" y="100" width="140" height="8" fill="#10B981"/><text x="70" y="98" text-anchor="middle" font-size="11" font-weight="600" fill="#fff" font-family="'DM Sans', system-ui" letter-spacing="0.8">M-PESA RECEIPT</text><g><text x="12" y="132" font-size="10" fill="#64748B" font-family="'DM Sans', system-ui">Paybill</text><text x="128" y="132" text-anchor="end" font-size="10" font-weight="600" fill="#0B1220" font-family="'DM Sans', system-ui">888 880</text></g><g><text x="12" y="152" font-size="10" fill="#64748B" font-family="'DM Sans', system-ui">Amount</text><text x="128" y="152" text-anchor="end" font-size="10" font-weight="600" fill="#0B1220" font-family="'DM Sans', system-ui">KES 1,450</text></g><g><text x="12" y="172" font-size="10" fill="#64748B" font-family="'DM Sans', system-ui">Rate</text><text x="128" y="172" text-anchor="end" font-size="10" font-weight="600" fill="#0B1220" font-family="'DM Sans', system-ui">131.47</text></g><g><text x="12" y="192" font-size="10" fill="#64748B" font-family="'DM Sans', system-ui">Fee</text><text x="128" y="192" text-anchor="end" font-size="10" font-weight="600" fill="#0B1220" font-family="'DM Sans', system-ui">KES 10</text></g><path d="M 0 230&#10;                  L 5 240 L 10 230 L 15 240 L 20 230 L 25 240 L 30 230 L 35 240 L 40 230 L 45 240 L 50 230 L 55 240 L 60 230 L 65 240 L 70 230 L 75 240 L 80 230 L 85 240 L 90 230 L 95 240 L 100 230 L 105 240 L 110 230 L 115 240 L 120 230 L 125 240 L 130 230 L 135 240 L 140 230" fill="#FFFFFF" stroke="#E5E7EB"/></g><g opacity="0.4"><line x1="328" y1="200" x2="356" y2="200" stroke="#E5E7EB" stroke-width="1" stroke-dasharray="2 3"/></g></svg>